<svg xmlns="http://www.w3.org/2000/svg" viewBox="0 0 1901 601"><defs><style>.cls-1{fill:none;}.cls-2{fill:#d4e3cf;}.cls-3{fill:#4bcd71;}.cls-4{fill:#00b836;}.cls-5{fill:#fe0006;}.cls-6{fill:#a74740;}.cls-7{fill:#fefefe;}</style></defs><g id="Layer_2" data-name="Layer 2"><g id="Layer_1-2" data-name="Layer 1"><rect class="cls-1" width="1901" height="601"/><path class="cls-2" d="M788.22,101.18q0,63.19,0,126.39a1.78,1.78,0,0,1-1.79.53,128.84,128.84,0,0,1-18.93-9.32,1.68,1.68,0,0,1-.62-1.44c0-.12,0-.24,0-.35v-.29l.16.08c.27.14.37.53.48.85,1.32-1.39.76-3.13.83-4.73.21-5.77-.44-11.5-.84-17.24-1-13.6-16.06-28.5-29.71-28.56q-38-.16-76,0c-15.37.08-30.45,15.41-30.49,30.8q-.1,32.22,0,64.43c0,1.73-.65,3.69,1.12,5.07a53.5,53.5,0,0,1-23,10.6c1.43-1.89,1-4.1,1-6.21,0-37.81.12-75.61,0-113.41-.08-19.84,16-35.39,34.84-35.11,35.54.55,71.11.16,106.65.16,6.54,0,6.54,0,6.54-6.77v-10.4c0-12.88,1.22-14.73,12.9-19.47h5c1.3.64,2.59,1.32,3.92,1.92C785.58,91.14,788.23,95.27,788.22,101.18Z"/><path class="cls-3" d="M367.13,354.38l-1,.1V167.09c16.4,0,32.81,0,49.21,0,1.5,0,3.31-.82,4.51.92-2,2-4.59,1.62-7,1.63-11.75.07-23.5,0-35.24,0-8.83,0-8.85,0-8.85,8.66q0,83.49,0,167C368.67,348.4,369.37,351.66,367.13,354.38Z"/><path class="cls-2" d="M788.26,481.64c.09,14.35-13,32.71-32.55,32.58q-56.1-.35-112.18,0a32.78,32.78,0,0,1-32.9-32.69c-.43-66.07-.13-132.13-.11-198.2l3.68.54a3.64,3.64,0,0,1,2-.88h0c4.73,1,9.51,1.66,14.25,2.59,1.54.3,3.61.1,4,2.34a.17.17,0,0,1,0,.07l-.09-.08c-2.68,0-3.12,1.57-3.1,3.89.11,8.09.45,16.21,0,24.27-1.08,17.5,14.74,34.39,34.57,34.42q34,.06,68,0a33.15,33.15,0,0,0,14.35-3.23c14.33-6.85,19.88-19,20.17-34.06.23-12.05,0-24.1,0-36.16a7.09,7.09,0,0,1-1.13,1.3c0-.07,0-.14,0-.21a4.41,4.41,0,0,1,.2-.71,3.52,3.52,0,0,1,1.57-2.1c5.82-3.29,11.43-6.91,17.26-10.15a2.52,2.52,0,0,1,1.91-.06q0,67.15.1,134.29C788.23,426.81,788.1,454.23,788.26,481.64Z"/><path class="cls-4" d="M367.13,354.38q0-90.81-.12-181.63c0-3.67,1-4.81,4.71-4.77,16,.18,32.06.06,48.09.05q15.84,31.6,31.66,63.22c7.43,14.89,14.81,29.81,22.55,45.4,4.44-8.95,8.62-17.33,12.76-25.73q19.61-39.72,39.11-79.48c1.48-3,3.11-4.33,6.67-4.27,14.73.23,29.46.21,44.19,0,3.55-.05,4.82.63,4.81,4.54q-.19,89.21,0,178.43c0,3.34-.66,4.57-4.29,4.49-11.58-.24-23.18-.31-34.75,0-4.3.13-4.66-1.59-4.65-5.09.1-37,.06-74,.06-111.43-2.33.87-2.48,2.83-3.18,4.29Q513.28,287,492,331.68c-1.44,3-3,4.44-6.62,4.29-7.6-.33-15.23-.28-22.84,0-3.32.12-4.87-1-6.31-4C441.92,302,427.46,272.2,413,242.35a9.57,9.57,0,0,0-3-3.92v4.69c0,35.52-.06,71.05.07,106.57,0,3.69-.68,5.09-4.78,5C392.61,354.32,379.87,354.44,367.13,354.38Z"/><path class="cls-4" d="M992.8,261.09c0-29.74.07-59.47-.08-89.2,0-3.63.79-4.73,4.6-4.71q69.5.21,139,0c3.79,0,4.72,1,4.62,4.69-.26,9.73-.3,19.49,0,29.23.13,4.22-.8,5.55-5.34,5.52-29.13-.24-58.25-.15-87.37-.11-7.46,0-6.41-.94-6.46,6.68,0,7.77.18,15.54-.09,23.29-.14,3.79.79,5,4.84,5,26.48-.2,53,0,79.43-.19,3.93,0,5.43.65,5.27,5-.37,9.73-.29,19.49,0,29.23.1,3.63-.78,4.71-4.59,4.69-26.47-.13-52.95.12-79.42,0-4.28,0-5.74.88-5.54,5.39.4,8.57.29,17.18,0,25.76-.11,3.59,1.15,4.37,4.52,4.36,30.61-.12,61.22,0,91.84-.18,4.57,0,5.82,1.18,5.66,5.7-.36,9.9-.2,19.82,0,29.73,0,2.76-.72,3.68-3.59,3.67q-72-.12-144,0c-3.82,0-3.31-2.06-3.31-4.36Q992.82,305.68,992.8,261.09Z"/><path class="cls-4" d="M1534.85,353q-38.4-91.44-76.79-182.9c-.94-2.23-2.16-2.87-4.45-2.86q-21.84.14-43.68,0c-2.52,0-3.8.77-4.8,3.1q-38.73,90.24-77.65,180.4c-1.64,3.79-.19,3.93,2.92,3.9,14.07-.1,28.14-.16,42.21.05,3.11,0,4.32-1.18,5.31-3.81,3.26-8.64,6.81-17.17,10.07-25.81.94-2.46,2-3.58,4.93-3.56q37,.19,74,0c2.84,0,4,1,4.94,3.53,3.24,8.83,6.79,17.53,10.13,26.31.76,2,1.48,3.33,4.09,3.31,16.21-.13,32.42-.06,48.8-.06C1534.86,353.61,1535,353.24,1534.85,353Zm-130.57-69c8.64-22.06,17.14-43.74,26-66.47,8.69,22.57,17,44.22,25.58,66.47Z"/><path class="cls-4" d="M1253.8,163.69c18.06.16,41.6,6.29,63.57,18.55,3.13,1.75,3.73,3.22,2.08,6.5q-7.74,15.49-14.83,31.3c-1.49,3.3-2.72,3.35-5.73,1.68-15.42-8.53-31.69-14.83-49.23-17.45-6.09-.91-12.21-1-18.13,1.12-9.4,3.42-11.79,14-4.74,21.1,3.8,3.84,8.56,6.19,13.61,7.87,14.26,4.74,28.59,9.28,42.82,14.09,10.34,3.49,19.46,9,26.75,17.28,18.55,21.17,14.72,57.07-8.17,75.29-13.46,10.71-29.37,15.06-46.09,16.12-33.92,2.17-64.75-6.85-92.33-26.84-3-2.2-3.85-3.86-1.89-7.51,5.39-10,10.32-20.3,15.24-30.56,1.37-2.86,2.22-3.06,4.81-1,18.1,14.36,38.36,23.82,61.64,26a36,36,0,0,0,17.53-2.35c10.92-4.61,12.7-17.25,3.54-24.81-5-4.1-10.91-6.12-16.94-7.92-14.71-4.41-29.73-7.9-43.84-14.06-15.4-6.72-27.35-16.86-30.88-34.21-5.68-27.88,6.8-51.42,33-62.74C1217.47,166,1230.26,163.68,1253.8,163.69Z"/><path class="cls-4" d="M973.79,224.75c-2.41-25.21-15.36-42.68-39.25-51.73-11.12-4.22-22.76-5.66-34.57-5.71-26.31-.12-52.63,0-79-.13-3.89,0-5,.94-5,4.89.17,29.58.1,59.16.1,88.74,0,29.75.07,59.5-.1,89.23,0,3.78,1,4.68,4.69,4.62,13.4-.23,26.82-.2,40.22,0,3.39.05,4.52-.79,4.47-4.34-.2-14.05.11-28.1-.19-42.13-.1-4.35,1-5.42,5.39-5.43,16.36,0,32.8,1.36,49-1.77,25-4.83,43.05-18,51.06-42.88C974.22,247.25,974.87,236,973.79,224.75Zm-47.5,19.71c-2.9,10.73-11.49,17.69-23.52,18.8-11.4,1.05-22.83.29-34.24.57-2.83.07-3.23-1.26-3.2-3.61.09-8.42,0-16.85,0-25.27,0-8.09.12-16.2-.06-24.29-.07-3.07.61-4.34,4-4.25,9.59.25,19.19-.08,28.78.14C920.49,207.08,932.15,222.85,926.29,244.46Z"/><path class="cls-5" d="M810,242.64c-6.23,8.54-13.83,15.73-21.9,22.46L768.29,277a7.09,7.09,0,0,1-1.13,1.3c0-.07,0-.14,0-.21a4.41,4.41,0,0,1,.2-.71c-26,11-53.17,14.95-81.23,14.75-17.37-.12-34.54-2.16-51.73-4.24a.17.17,0,0,1,0,.07l-.09-.08-20.13-4a3.64,3.64,0,0,1,2-.88h0a27,27,0,0,1,3.71.11c22.84-.08,43-7.71,61-21.5,20.69-15.3,36.12-35.07,48.63-57.27,1.57-2.8,2.64-3.57,5.85-2,10.39,5.22,21,10,31.49,15,0-.12,0-.24,0-.35v-.29l.16.08c.27.14.37.53.48.85a184.12,184.12,0,0,0,20.72,9.94c6.89,3.41,13.71,7,20.7,10.16C811.84,239.09,811.8,240.19,810,242.64Z"/><path class="cls-6" d="M680.87,261.6c-18,13.79-38.14,21.42-61,21.5a27,27,0,0,0-3.71-.11h0a3.64,3.64,0,0,0-2,.88l-3.68-.54h0c-3.27-1.09-6.54-2.18-9.81-3.3-.23-.08-.35-.47-.56-.77l9.28-1.27a53.5,53.5,0,0,0,23-10.6l.43-.3h0c10.31-7.07,18.2-16.54,25.85-26.58,6,8.18,11.69,16.29,21,20.57C680.06,261.26,680.46,261.44,680.87,261.6Z"/><path class="cls-7" d="M767,216.78l-.16-.08V217c0,.11,0,.23,0,.35l.62.29C767.35,217.31,767.25,216.92,767,216.78Z"/><path class="cls-7" d="M634.41,287.92h-.08l.09.08A.17.17,0,0,0,634.41,287.92Zm133-10.51a4.41,4.41,0,0,0-.2.71c0,.07,0,.14,0,.21a7.09,7.09,0,0,0,1.13-1.3Z"/></g></g></svg>